<svg width="315" height="82" viewBox="0 0 315 82" fill="none" xmlns="http://www.w3.org/2000/svg">
<circle cx="12.364" cy="21.7883" r="11.6501" fill="#FBBD15"/>
<path d="M1.5 37.25C1.5 33.75 2.2 30.6333 3.6 27.9C5.03333 25.1667 7.06667 23.05 9.7 21.55C12.3333 20.0167 15.4333 19.25 19 19.25C22.0667 19.25 24.8 19.8333 27.2 21C29.6333 22.1333 31.6 23.75 33.1 25.85C34.6333 27.95 35.65 30.4 36.15 33.2H24.45C23.9167 32.0333 23.15 31.1333 22.15 30.5C21.1833 29.8333 20.0667 29.5 18.8 29.5C16.9333 29.5 15.45 30.2 14.35 31.6C13.2833 33 12.75 34.8833 12.75 37.25C12.75 39.6167 13.2833 41.5 14.35 42.9C15.45 44.3 16.9333 45 18.8 45C20.0667 45 21.1833 44.6833 22.15 44.05C23.15 43.3833 23.9167 42.4667 24.45 41.3H36.15C35.65 44.1 34.6333 46.55 33.1 48.65C31.6 50.75 29.6333 52.3833 27.2 53.55C24.8 54.6833 22.0667 55.25 19 55.25C15.4333 55.25 12.3333 54.5 9.7 53C7.06667 51.4667 5.03333 49.3333 3.6 46.6C2.2 43.8667 1.5 40.75 1.5 37.25ZM62.8465 49.65H51.0465L49.2965 55H37.6465L50.5965 19.6H63.3965L76.2965 55H64.5965L62.8465 49.65ZM60.1465 41.3L56.9465 31.45L53.7465 41.3H60.1465ZM96.6184 55L89.9684 42.3H89.9184V55H78.8184V19.6H95.3184C98.185 19.6 100.635 20.1167 102.668 21.15C104.702 22.15 106.218 23.5333 107.218 25.3C108.252 27.0333 108.768 29 108.768 31.2C108.768 33.5667 108.102 35.6667 106.768 37.5C105.468 39.3333 103.585 40.65 101.118 41.45L108.818 55H96.6184ZM89.9184 34.9H94.3184C95.385 34.9 96.185 34.6667 96.7184 34.2C97.2517 33.7 97.5184 32.9333 97.5184 31.9C97.5184 30.9667 97.235 30.2333 96.6684 29.7C96.135 29.1667 95.3517 28.9 94.3184 28.9H89.9184V34.9ZM140.114 19.6V28.4H130.714V55H119.614V28.4H110.314V19.6H140.114ZM154.225 28.45V32.8H165.225V41.15H154.225V46.15H166.725V55H143.125V19.6H166.725V28.45H154.225Z" fill="#1D75BD"/>
<path d="M206 21.35C209.9 21.35 212.867 22.3 214.9 24.2C216.967 26.1 218 28.5333 218 31.5C218 34.4667 217 36.9167 215 38.85C213.033 40.75 210.033 41.7 206 41.7H199.3V56H194.75V21.35H206ZM199.3 38.1H206C208.5 38.1 210.35 37.5333 211.55 36.4C212.783 35.2333 213.4 33.6167 213.4 31.55C213.4 27.1833 210.933 25 206 25H199.3V38.1ZM242.006 21.35V24.95H228.206V36.75H240.506V40.3H228.206V52.4H242.006V56H223.656V21.35H242.006ZM253.45 52.5H259.85C264.217 52.5 267.55 51.3 269.85 48.9C272.15 46.5 273.3 43.15 273.3 38.85C273.3 34.55 272.15 31.2 269.85 28.8C267.55 26.4 264.217 25.2 259.85 25.2H253.45V52.5ZM259.85 21.35C265.45 21.35 269.867 22.9167 273.1 26.05C276.334 29.1833 277.95 33.45 277.95 38.85C277.95 44.25 276.334 48.4667 273.1 51.5C269.867 54.5 265.45 56 259.85 56H248.9V21.35H259.85ZM307.615 56L304.915 48.4H289.515L286.815 56H282.165L294.765 21.35H299.765L312.315 56H307.615ZM290.815 44.8H303.615L297.215 26.9L290.815 44.8Z" fill="#333333"/>
</svg>
