<svg xmlns="http://www.w3.org/2000/svg"  width="40" height="40" viewBox="0 0 512 512" style="shape-rendering:geometricPrecision; text-rendering:geometricPrecision; image-rendering:optimizeQuality; fill-rule:evenodd; clip-rule:evenodd">
  <path fill="#333333" d="M 105.5,-0.5 C 108.167,-0.5 110.833,-0.5 113.5,-0.5C 115.901,0.745833 117.401,2.74583 118,5.5C 118.5,108.499 118.667,211.499 118.5,314.5C 147.436,321.44 163.103,339.773 165.5,369.5C 163.264,399.364 147.597,417.364 118.5,423.5C 118.667,450.835 118.5,478.169 118,505.5C 117.401,508.254 115.901,510.254 113.5,511.5C 110.833,511.5 108.167,511.5 105.5,511.5C 104.542,510.038 103.376,508.705 102,507.5C 101.5,479.502 101.333,451.502 101.5,423.5C 72.1022,417.263 56.4355,399.097 54.5,369C 56.3897,338.944 72.0564,320.777 101.5,314.5C 101.333,210.833 101.5,107.166 102,3.5C 103.376,2.29493 104.542,0.961599 105.5,-0.5 Z M 106.5,330.5 C 131.173,331.672 145.173,344.506 148.5,369C 143.418,398.864 126.085,410.864 96.5,405C 76.8593,395.553 69.0259,380.053 73,358.5C 78.9474,342.704 90.114,333.371 106.5,330.5 Z"/>
  <path fill="#333333" d="M 251.5,-0.5 C 254.167,-0.5 256.833,-0.5 259.5,-0.5C 261.144,0.316435 262.31,1.64977 263,3.5C 263.333,42.5 263.667,81.5 264,120.5C 293.085,127.332 308.585,145.666 310.5,175.5C 308.994,205.343 293.661,223.676 264.5,230.5C 263.667,322.832 263.167,415.165 263,507.5C 262.31,509.35 261.144,510.684 259.5,511.5C 256.833,511.5 254.167,511.5 251.5,511.5C 249.856,510.684 248.69,509.35 248,507.5C 247.667,415.167 247.333,322.833 247,230.5C 209.632,220.084 194.965,195.751 203,157.5C 210.768,136.951 225.434,124.618 247,120.5C 247.333,81.5 247.667,42.5 248,3.5C 248.69,1.64977 249.856,0.316435 251.5,-0.5 Z M 248.5,137.5 C 271.586,136.117 286.419,146.45 293,168.5C 294.87,191.594 284.704,206.428 262.5,213C 239.95,214.808 225.117,204.975 218,183.5C 215.94,159.931 226.107,144.598 248.5,137.5 Z"/>
  <path fill="#333333" d="M 397.5,-0.5 C 400.167,-0.5 402.833,-0.5 405.5,-0.5C 406.458,0.961599 407.624,2.29493 409,3.5C 409.5,107.166 409.667,210.833 409.5,314.5C 438.937,321.029 454.604,339.363 456.5,369.5C 454.329,399.333 438.662,417.333 409.5,423.5C 409.667,451.502 409.5,479.502 409,507.5C 407.624,508.705 406.458,510.038 405.5,511.5C 402.5,511.5 399.5,511.5 396.5,511.5C 394.73,509.887 393.564,507.887 393,505.5C 392.5,478.169 392.333,450.835 392.5,423.5C 363.403,417.364 347.736,399.364 345.5,369.5C 347.962,339.716 363.628,321.383 392.5,314.5C 392.333,211.499 392.5,108.499 393,5.5C 393.599,2.74583 395.099,0.745833 397.5,-0.5 Z M 397.5,330.5 C 417.445,330.553 430.945,339.886 438,358.5C 441.974,380.053 434.141,395.553 414.5,405C 384.915,410.864 367.582,398.864 362.5,369C 365.004,347.669 376.671,334.836 397.5,330.5 Z"/>
</svg>