<svg width="30" height="30" viewBox="0 0 30 30" fill="none" xmlns="http://www.w3.org/2000/svg">
<path d="M21.625 13.75C21.625 17.5 18.45 20.125 15 20.125C11.55 20.125 8.375 17.5 8.375 13.75H6.25C6.25 18.0125 9.65 21.5375 13.75 22.15V26.25H16.25V22.15C20.35 21.5375 23.75 18.0125 23.75 13.75M13.5 6.125C13.5 5.3 14.175 4.625 15 4.625C15.825 4.625 16.5 5.3 16.5 6.125L16.4875 13.875C16.4875 14.7 15.825 15.375 15 15.375C14.175 15.375 13.5 14.7 13.5 13.875M15 17.5C15.9946 17.5 16.9484 17.1049 17.6517 16.4017C18.3549 15.6984 18.75 14.7446 18.75 13.75V6.25C18.75 5.25544 18.3549 4.30161 17.6517 3.59835C16.9484 2.89509 15.9946 2.5 15 2.5C14.0054 2.5 13.0516 2.89509 12.3483 3.59835C11.6451 4.30161 11.25 5.25544 11.25 6.25V13.75C11.25 14.7446 11.6451 15.6984 12.3483 16.4017C13.0516 17.1049 14.0054 17.5 15 17.5Z" fill="#333333"/>
</svg>
