<svg width="30" height="30" viewBox="0 0 30 30" fill="none" xmlns="http://www.w3.org/2000/svg">
<path d="M19.7531 4.27384C19.642 4.16961 19.5027 4.10016 19.3526 4.07405C19.2025 4.04794 19.048 4.06631 18.9082 4.12689C18.7683 4.18747 18.6493 4.28762 18.5657 4.41501C18.482 4.54239 18.4375 4.69146 18.4375 4.84384V8.26384C18.2137 8.26884 17.9531 8.28259 17.6625 8.30884C16.7031 8.39759 15.4025 8.63759 14.0525 9.24947C11.3012 10.4963 8.47375 13.2332 7.8175 18.9745C7.79963 19.1316 7.82989 19.2905 7.90427 19.4301C7.97866 19.5697 8.09367 19.6835 8.2341 19.7563C8.37452 19.8291 8.53374 19.8576 8.6907 19.8379C8.84766 19.8183 8.99496 19.7515 9.11313 19.6463C11.8225 17.2376 14.3612 16.2007 16.1981 15.7595C16.9123 15.5838 17.6421 15.4798 18.3769 15.4488L18.4375 15.447V18.9063C18.4375 19.0587 18.482 19.2078 18.5657 19.3352C18.6493 19.4626 18.7683 19.5627 18.9082 19.6233C19.048 19.6839 19.2025 19.7022 19.3526 19.6761C19.5027 19.65 19.642 19.5806 19.7531 19.4763L27.2531 12.4451C27.3311 12.372 27.3932 12.2837 27.4357 12.1857C27.4782 12.0877 27.5001 11.9819 27.5001 11.8751C27.5001 11.7682 27.4782 11.6625 27.4357 11.5645C27.3932 11.4664 27.3311 11.3782 27.2531 11.3051L19.7531 4.27384ZM19.1288 9.83884L19.1412 9.84009H19.1425C19.2511 9.85083 19.36 9.83871 19.4636 9.80452C19.5672 9.77033 19.6625 9.71483 19.7433 9.64159C19.8241 9.56835 19.8887 9.47899 19.933 9.37927C19.9772 9.27955 20 9.17167 20 9.06259V6.64697L25.5763 11.8751L20 17.1032V14.6876C20 14.2938 19.7163 13.9626 19.3156 13.9126H19.3138L19.3113 13.912L19.305 13.9113L19.2875 13.9095C19.2022 13.9011 19.1168 13.8949 19.0313 13.8907C18.7952 13.8795 18.5587 13.8783 18.3225 13.887C17.7187 13.9082 16.8663 13.9932 15.8331 14.2407C14.1581 14.6426 12.0213 15.4726 9.72188 17.1488C10.6506 13.3488 12.7612 11.5501 14.6969 10.6726C15.8475 10.1513 16.9687 9.94259 17.8062 9.86509C18.2237 9.82634 18.5662 9.82134 18.8006 9.82509C18.9101 9.82675 19.0195 9.83134 19.1288 9.83884ZM7.65625 5.00009C6.62025 5.00009 5.62668 5.41164 4.89411 6.14421C4.16155 6.87677 3.75 7.87034 3.75 8.90634V22.3438C3.75 23.3798 4.16155 24.3734 4.89411 25.106C5.62668 25.8385 6.62025 26.2501 7.65625 26.2501H21.0938C22.1298 26.2501 23.1233 25.8385 23.8559 25.106C24.5885 24.3734 25 23.3798 25 22.3438V20.9376C25 20.7304 24.9177 20.5317 24.7712 20.3852C24.6247 20.2387 24.426 20.1563 24.2188 20.1563C24.0115 20.1563 23.8128 20.2387 23.6663 20.3852C23.5198 20.5317 23.4375 20.7304 23.4375 20.9376V22.3438C23.4375 22.9654 23.1906 23.5616 22.751 24.0011C22.3115 24.4407 21.7154 24.6876 21.0938 24.6876H7.65625C7.03465 24.6876 6.43851 24.4407 5.99897 24.0011C5.55943 23.5616 5.3125 22.9654 5.3125 22.3438V8.90634C5.3125 8.28474 5.55943 7.6886 5.99897 7.24906C6.43851 6.80952 7.03465 6.56259 7.65625 6.56259H12.8125C13.0197 6.56259 13.2184 6.48028 13.3649 6.33377C13.5114 6.18726 13.5938 5.98854 13.5938 5.78134C13.5938 5.57414 13.5114 5.37543 13.3649 5.22892C13.2184 5.0824 13.0197 5.00009 12.8125 5.00009H7.65625Z" fill="black"/>
</svg>
