<svg width="30" height="30" viewBox="0 0 30 30" fill="none" xmlns="http://www.w3.org/2000/svg">
<path d="M11.8475 3.75H9.0625C8.31658 3.75 7.60121 4.04632 7.07376 4.57376C6.54632 5.10121 6.25 5.81658 6.25 6.5625V23.4375C6.25 24.1834 6.54632 24.8988 7.07376 25.4262C7.60121 25.9537 8.31658 26.25 9.0625 26.25H20.3125C21.0584 26.25 21.7738 25.9537 22.3012 25.4262C22.8287 24.8988 23.125 24.1834 23.125 23.4375V15M11.8475 3.75C13.4012 3.75 14.6875 5.00875 14.6875 6.5625V9.375C14.6875 10.1209 14.9838 10.8363 15.5113 11.3637C16.0387 11.8912 16.7541 12.1875 17.5 12.1875H20.3125C21.0584 12.1875 21.7738 12.4838 22.3012 13.0113C22.8287 13.5387 23.125 14.2541 23.125 15M11.8475 3.75C16.46 3.75 23.125 10.45 23.125 15M11.25 20.625H18.75M11.25 16.875H16.25" stroke="#333333" stroke-width="1.5" stroke-linecap="round" stroke-linejoin="round"/>
</svg>
