<svg width="48" height="48" viewBox="0 0 48 48" fill="none" xmlns="http://www.w3.org/2000/svg">
<rect width="48" height="48" rx="24" fill="#F7F7F7"/>
<path d="M27 28.9999V29.9999C27 30.7955 26.6839 31.5586 26.1213 32.1212C25.5587 32.6838 24.7956 32.9999 24 32.9999C23.2044 32.9999 22.4413 32.6838 21.8787 32.1212C21.3161 31.5586 21 30.7955 21 29.9999V28.9999M27 28.9999H21M27 28.9999H31C31.2652 28.9999 31.5196 28.8945 31.7071 28.707C31.8946 28.5195 32 28.2651 32 27.9999V27.4139C31.9999 27.1487 31.8946 26.8944 31.707 26.7069L31.197 26.1969C31.1345 26.1346 31.0849 26.0606 31.0511 25.979C31.0173 25.8975 30.9999 25.8101 31 25.7219V21.9999C31 21.8239 30.994 21.6489 30.98 21.4759M21 28.9999H17C16.7348 28.9999 16.4804 28.8945 16.2929 28.707C16.1054 28.5195 16 28.2651 16 27.9999V27.4139C16.0001 27.1487 16.1055 26.8944 16.293 26.7069L16.803 26.1959C16.8654 26.1337 16.915 26.0599 16.9488 25.9785C16.9826 25.8972 17 25.81 17 25.7219V21.9999C16.9998 20.9056 17.2561 19.8264 17.7485 18.8491C18.2408 17.8718 18.9555 17.0235 19.835 16.3724C20.7146 15.7213 21.7345 15.2855 22.813 15.0999C23.8915 14.9143 24.9984 14.9842 26.045 15.3039M30.98 21.4759C31.4818 21.1895 31.9155 20.7978 32.2515 20.3277C32.5874 19.8577 32.8175 19.3204 32.926 18.7529C33.0345 18.1854 33.0187 17.6012 32.8798 17.0404C32.7409 16.4796 32.4822 15.9555 32.1214 15.5042C31.7607 15.0529 31.3064 14.6852 30.7899 14.4262C30.2735 14.1673 29.707 14.0233 29.1296 14.0041C28.5521 13.985 27.9774 14.0912 27.4449 14.3154C26.9124 14.5396 26.4349 14.8775 26.045 15.3039M30.98 21.4759C30.152 21.9485 29.1825 22.1098 28.2461 21.9308C27.3098 21.7518 26.4681 21.2443 25.8728 20.4997C25.2775 19.7551 24.9677 18.8223 24.9993 17.8695C25.0309 16.9167 25.4017 16.0075 26.045 15.3039M26.045 15.3039H26.047" stroke="black" stroke-width="1.5" stroke-linecap="round" stroke-linejoin="round"/>
</svg>
