<svg width="30" height="30" viewBox="0 0 30 30" fill="none" xmlns="http://www.w3.org/2000/svg">
<path d="M15 18.75C17.0711 18.75 18.75 17.0711 18.75 15C18.75 12.9289 17.0711 11.25 15 11.25C12.9289 11.25 11.25 12.9289 11.25 15C11.25 17.0711 12.9289 18.75 15 18.75Z" stroke="black" stroke-width="1.5"/>
<path d="M17.2063 2.69C16.7476 2.5 16.1651 2.5 15.0001 2.5C13.8351 2.5 13.2526 2.5 12.7938 2.69C12.4903 2.81564 12.2145 2.99987 11.9822 3.23215C11.7499 3.46444 11.5657 3.74023 11.4401 4.04375C11.3251 4.3225 11.2788 4.64875 11.2613 5.1225C11.2535 5.46499 11.1588 5.79987 10.9861 6.09571C10.8134 6.39155 10.5683 6.63863 10.2738 6.81375C9.97495 6.9813 9.63838 7.07013 9.29574 7.07188C8.95311 7.07363 8.61565 6.98824 8.31507 6.82375C7.89507 6.60125 7.59132 6.47875 7.29007 6.43875C6.63297 6.35234 5.96845 6.53038 5.44258 6.93375C5.05008 7.2375 4.75757 7.74125 4.17507 8.75C3.59257 9.75875 3.30007 10.2625 3.23632 10.7562C3.19337 11.0818 3.21497 11.4127 3.29991 11.7299C3.38484 12.0471 3.53144 12.3445 3.73132 12.605C3.91632 12.845 4.17507 13.0462 4.57632 13.2987C5.16757 13.67 5.54758 14.3025 5.54758 15C5.54758 15.6975 5.16757 16.33 4.57632 16.7C4.17507 16.9537 3.91507 17.155 3.73132 17.395C3.53144 17.6555 3.38484 17.9529 3.29991 18.2701C3.21497 18.5873 3.19337 18.9182 3.23632 19.2438C3.30132 19.7363 3.59257 20.2413 4.17382 21.25C4.75757 22.2587 5.04883 22.7625 5.44258 23.0662C5.70312 23.2661 6.00049 23.4127 6.31771 23.4977C6.63492 23.5826 6.96576 23.6042 7.29133 23.5613C7.59133 23.5213 7.89507 23.3988 8.31507 23.1763C8.61565 23.0118 8.95311 22.9264 9.29574 22.9281C9.63838 22.9299 9.97495 23.0187 10.2738 23.1862C10.8776 23.5362 11.2363 24.18 11.2613 24.8775C11.2788 25.3525 11.3238 25.6775 11.4401 25.9562C11.5657 26.2598 11.7499 26.5356 11.9822 26.7678C12.2145 27.0001 12.4903 27.1844 12.7938 27.31C13.2526 27.5 13.8351 27.5 15.0001 27.5C16.1651 27.5 16.7476 27.5 17.2063 27.31C17.5098 27.1844 17.7856 27.0001 18.0179 26.7678C18.2502 26.5356 18.4344 26.2598 18.5601 25.9562C18.6751 25.6775 18.7213 25.3525 18.7388 24.8775C18.7638 24.18 19.1226 23.535 19.7263 23.1862C20.0252 23.0187 20.3618 22.9299 20.7044 22.9281C21.047 22.9264 21.3845 23.0118 21.6851 23.1763C22.1051 23.3988 22.4088 23.5213 22.7088 23.5613C23.0344 23.6042 23.3652 23.5826 23.6824 23.4977C23.9997 23.4127 24.297 23.2661 24.5576 23.0662C24.9513 22.7637 25.2426 22.2587 25.8251 21.25C26.4076 20.2413 26.7001 19.7375 26.7638 19.2438C26.8068 18.9182 26.7852 18.5873 26.7002 18.2701C26.6153 17.9529 26.4687 17.6555 26.2688 17.395C26.0838 17.155 25.8251 16.9538 25.4238 16.7013C25.131 16.5233 24.8882 16.2737 24.7183 15.9762C24.5484 15.6786 24.457 15.3427 24.4526 15C24.4526 14.3025 24.8326 13.67 25.4238 13.3C25.8251 13.0463 26.0851 12.845 26.2688 12.605C26.4687 12.3445 26.6153 12.0471 26.7002 11.7299C26.7852 11.4127 26.8068 11.0818 26.7638 10.7562C26.6988 10.2637 26.4076 9.75875 25.8263 8.75C25.2426 7.74125 24.9513 7.2375 24.5576 6.93375C24.297 6.73386 23.9997 6.58727 23.6824 6.50233C23.3652 6.4174 23.0344 6.39579 22.7088 6.43875C22.4088 6.47875 22.1051 6.60125 21.6838 6.82375C21.3834 6.98802 21.0462 7.07328 20.7038 7.07153C20.3614 7.06978 20.0251 6.98108 19.7263 6.81375C19.4319 6.63863 19.1868 6.39155 19.0141 6.09571C18.8413 5.79987 18.7466 5.46499 18.7388 5.1225C18.7213 4.6475 18.6763 4.3225 18.5601 4.04375C18.4344 3.74023 18.2502 3.46444 18.0179 3.23215C17.7856 2.99987 17.5098 2.81564 17.2063 2.69Z" stroke="black" stroke-width="1.5"/>
</svg>
