<svg width="48" height="48" viewBox="0 0 48 48" fill="none" xmlns="http://www.w3.org/2000/svg">
<rect width="48" height="48" rx="24" fill="#F7F7F7"/>
<path d="M32.0001 31.9999L27.9501 27.9499M27.9501 27.9499C28.6002 27.2998 29.1158 26.5281 29.4676 25.6788C29.8194 24.8295 30.0005 23.9192 30.0005 22.9999C30.0005 22.0806 29.8194 21.1703 29.4676 20.3209C29.1158 19.4716 28.6002 18.6999 27.9501 18.0499C27.3001 17.3998 26.5284 16.8842 25.679 16.5324C24.8297 16.1806 23.9194 15.9995 23.0001 15.9995C22.0808 15.9995 21.1705 16.1806 20.3212 16.5324C19.4719 16.8842 18.7002 17.3998 18.0501 18.0499C16.7373 19.3627 15.9998 21.1433 15.9998 22.9999C15.9998 24.8565 16.7373 26.637 18.0501 27.9499C19.3629 29.2627 21.1435 30.0002 23.0001 30.0002C24.8567 30.0002 26.6373 29.2627 27.9501 27.9499Z" stroke="black" stroke-width="2" stroke-linecap="round" stroke-linejoin="round"/>
</svg>
