<svg width="30" height="30" viewBox="0 0 30 30" fill="none" xmlns="http://www.w3.org/2000/svg">
<path d="M26.25 16.8844V20.1225C26.8201 19.7934 27.2934 19.32 27.6226 18.7499C27.9517 18.1799 28.125 17.5332 28.125 16.875V11.25C28.125 9.26088 27.3348 7.35322 25.9283 5.9467C24.5218 4.54018 22.6141 3.75 20.625 3.75H9.375C8.71675 3.75002 8.07011 3.9233 7.50005 4.25243C6.93 4.58156 6.45662 5.05494 6.1275 5.625H20.625C21.3638 5.62451 22.0955 5.76967 22.7782 6.05217C23.4609 6.33468 24.0811 6.749 24.6036 7.27142C25.126 7.79385 25.5403 8.41414 25.8228 9.09682C26.1053 9.7795 26.2505 10.5112 26.25 11.25V16.875V16.8844ZM5.625 7.5C4.63044 7.5 3.67661 7.89509 2.97335 8.59835C2.27009 9.30161 1.875 10.2554 1.875 11.25V20.625C1.875 21.6196 2.27009 22.5734 2.97335 23.2766C3.67661 23.9799 4.63044 24.375 5.625 24.375V26.2463C5.62495 26.5921 5.72056 26.9312 5.90126 27.2261C6.08196 27.521 6.3407 27.7602 6.64887 27.9172C6.95704 28.0742 7.30263 28.1429 7.64742 28.1157C7.9922 28.0885 8.32275 27.9665 8.6025 27.7631L13.2619 24.375H20.625C21.6196 24.375 22.5734 23.9799 23.2766 23.2766C23.9799 22.5734 24.375 21.6196 24.375 20.625V11.25C24.375 10.2554 23.9799 9.30161 23.2766 8.59835C22.5734 7.89509 21.6196 7.5 20.625 7.5H5.625ZM3.75 11.25C3.75 10.7527 3.94754 10.2758 4.29917 9.92418C4.65081 9.57254 5.12772 9.375 5.625 9.375H20.625C21.1223 9.375 21.5992 9.57254 21.9508 9.92418C22.3025 10.2758 22.5 10.7527 22.5 11.25V20.625C22.5 21.1223 22.3025 21.5992 21.9508 21.9508C21.5992 22.3025 21.1223 22.5 20.625 22.5H12.6506L7.5 26.2463V22.5H5.625C5.12772 22.5 4.65081 22.3025 4.29917 21.9508C3.94754 21.5992 3.75 21.1223 3.75 20.625V11.25Z" fill="#333333"/>
</svg>
