<svg width="30" height="30" viewBox="0 0 30 30" fill="none" xmlns="http://www.w3.org/2000/svg">
<path d="M5 10C5 6.465 5 4.69625 6.09875 3.59875C7.19625 2.5 8.965 2.5 12.5 2.5H17.5C21.035 2.5 22.8038 2.5 23.9013 3.59875C25 4.69625 25 6.465 25 10V20C25 23.535 25 25.3038 23.9013 26.4013C22.8038 27.5 21.035 27.5 17.5 27.5H12.5C8.965 27.5 7.19625 27.5 6.09875 26.4013C5 25.3038 5 23.535 5 20V10Z" stroke="#333333" stroke-width="1.5"/>
<path d="M24.8725 20H9.8725C8.71 20 8.12875 20 7.65125 20.1275C7.01539 20.298 6.43562 20.6329 5.97022 21.0985C5.50483 21.5641 5.17021 22.1441 5 22.78" stroke="#333333" stroke-width="1.5"/>
<path d="M10 8.75H20M10 13.125H16.25" stroke="#333333" stroke-width="1.5" stroke-linecap="round"/>
</svg>
