<svg width="30" height="30" viewBox="0 0 30 30" fill="none" xmlns="http://www.w3.org/2000/svg">
<path d="M18.75 21.2499V22.4999C18.75 23.4944 18.3549 24.4482 17.6517 25.1515C16.9484 25.8548 15.9946 26.2499 15 26.2499C14.0054 26.2499 13.0516 25.8548 12.3483 25.1515C11.6451 24.4482 11.25 23.4944 11.25 22.4999V21.2499M18.75 21.2499H11.25M18.75 21.2499H23.75C24.0815 21.2499 24.3995 21.1182 24.6339 20.8837C24.8683 20.6493 25 20.3314 25 19.9999V19.2674C24.9999 18.9359 24.8682 18.618 24.6338 18.3836L23.9963 17.7461C23.9181 17.6682 23.8562 17.5757 23.8139 17.4738C23.7716 17.3719 23.7499 17.2627 23.75 17.1524V12.4999C23.75 12.2799 23.7425 12.0611 23.725 11.8449M11.25 21.2499H6.25C5.91848 21.2499 5.60054 21.1182 5.36612 20.8837C5.1317 20.6493 5 20.3314 5 19.9999V19.2674C5.00007 18.9359 5.13181 18.618 5.36625 18.3836L6.00375 17.7449C6.08178 17.6672 6.1437 17.5748 6.18596 17.4732C6.22822 17.3715 6.24998 17.2625 6.25 17.1524V12.4999C6.24973 11.1319 6.57018 9.78303 7.18562 8.56139C7.80106 7.33975 8.69434 6.27942 9.79377 5.46552C10.8932 4.65162 12.1681 4.10682 13.5162 3.87486C14.8643 3.64289 16.248 3.73023 17.5563 4.12986M23.725 11.8449C24.3522 11.4868 24.8944 10.9972 25.3143 10.4096C25.7343 9.82208 26.0219 9.15051 26.1575 8.44116C26.2931 7.7318 26.2734 7.0015 26.0998 6.30048C25.9262 5.59946 25.6028 4.94437 25.1518 4.38028C24.7008 3.81619 24.133 3.35648 23.4874 3.03279C22.8418 2.7091 22.1338 2.5291 21.412 2.50518C20.6902 2.48127 19.9718 2.614 19.3062 2.89425C18.6406 3.17449 18.0436 3.59685 17.5563 4.12986M23.725 11.8449C22.6901 12.4356 21.4782 12.6373 20.3077 12.4135C19.1372 12.1898 18.0851 11.5554 17.341 10.6246C16.5969 9.69382 16.2097 8.52787 16.2491 7.33686C16.2886 6.14585 16.7522 5.00934 17.5563 4.12986M17.5563 4.12986H17.5587" stroke="black" stroke-width="1.5" stroke-linecap="round" stroke-linejoin="round"/>
</svg>
