<svg width="30" height="30" viewBox="0 0 30 30" fill="none" xmlns="http://www.w3.org/2000/svg">
<path d="M11.1641 3.18479C8.63685 4.06152 6.45736 5.72557 4.94574 7.93253C3.43413 10.1395 2.67009 12.773 2.76583 15.4463C2.86157 18.1196 3.81206 20.6918 5.47768 22.7849C7.1433 24.8781 9.43626 26.382 12.0198 27.0757C14.1143 27.6161 16.3087 27.6398 18.4144 27.1448C20.3219 26.7163 22.0855 25.7998 23.5324 24.485C25.0384 23.0748 26.1314 21.2807 26.6942 19.2958C27.3056 17.1372 27.4144 14.8673 27.0123 12.6601H15.2507V17.5391H22.0622C21.9261 18.3172 21.6344 19.0599 21.2045 19.7227C20.7746 20.3855 20.2155 20.9547 19.5605 21.3964C18.7288 21.9468 17.7912 22.317 16.8078 22.4832C15.8216 22.6667 14.8101 22.6667 13.8239 22.4832C12.8243 22.2768 11.8787 21.8642 11.0475 21.2719C9.71198 20.3265 8.70917 18.9834 8.18219 17.4343C7.64646 15.8562 7.64646 14.1454 8.18219 12.5672C8.55731 11.4611 9.17742 10.4539 9.99624 9.6209C10.9333 8.65014 12.1196 7.95624 13.4251 7.61532C14.7305 7.27441 16.1046 7.29965 17.3967 7.68829C18.4061 7.99799 19.3291 8.53934 20.0921 9.26916C20.8601 8.50507 21.6268 7.73901 22.3922 6.97097C22.7874 6.55797 23.2182 6.16473 23.6075 5.74184C22.4427 4.658 21.0755 3.81458 19.5842 3.25988C16.8685 2.27379 13.897 2.24729 11.1641 3.18479Z" fill="white"/>
<path d="M11.1645 3.18477C13.8972 2.24664 16.8687 2.27244 19.5846 3.25789C21.0762 3.81635 22.4428 4.66383 23.606 5.75171C23.2108 6.17459 22.7938 6.56981 22.3907 6.98083C21.624 7.74624 20.8579 8.50901 20.0925 9.26914C19.3295 8.53933 18.4065 7.99797 17.3971 7.68827C16.1055 7.29827 14.7314 7.27157 13.4256 7.61109C12.1198 7.95061 10.9328 8.64324 9.9947 9.61298C9.17588 10.446 8.55577 11.4531 8.18065 12.5593L4.08423 9.3877C5.5505 6.48002 8.08926 4.25586 11.1645 3.18477Z" fill="#E33629"/>
<path d="M2.99747 12.5297C3.21749 11.4384 3.58304 10.3817 4.08432 9.3877L8.18074 12.5672C7.645 14.1454 7.645 15.8562 8.18074 17.4343C6.81593 18.4882 5.45045 19.5474 4.08432 20.6119C2.8298 18.1147 2.4472 15.2695 2.99747 12.5297Z" fill="#F8BD00"/>
<path d="M15.2514 12.6587H27.013C27.4151 14.8659 27.3063 17.1358 26.6949 19.2944C26.1322 21.2793 25.0391 23.0733 23.5331 24.4836C22.2111 23.4521 20.8832 22.4285 19.5612 21.3969C20.2166 20.9548 20.776 20.385 21.2059 19.7215C21.6358 19.058 21.9273 18.3145 22.0629 17.5357H15.2514C15.2494 15.9113 15.2514 14.285 15.2514 12.6587Z" fill="#587DBD"/>
<path d="M4.08228 20.6121C5.44841 19.5582 6.81388 18.499 8.1787 17.4346C8.70673 18.9842 9.71097 20.3273 11.048 21.2721C11.8818 21.8617 12.8294 22.2709 13.8303 22.4736C14.8165 22.657 15.828 22.657 16.8142 22.4736C17.7975 22.3074 18.7352 21.9371 19.5669 21.3867C20.8889 22.4183 22.2168 23.4419 23.5388 24.4734C22.0921 25.7889 20.3285 26.7061 18.4207 27.1352C16.3151 27.6302 14.1206 27.6065 12.0261 27.066C10.3696 26.6237 8.82226 25.844 7.48114 24.7757C6.06178 23.6486 4.90242 22.2284 4.08228 20.6121Z" fill="#319F43"/>
</svg>
