<svg width="30" height="30" viewBox="0 0 30 30" fill="none" xmlns="http://www.w3.org/2000/svg">
<path d="M20.625 10.3125V7.5C20.625 6.75408 20.3287 6.03871 19.8012 5.51126C19.2738 4.98382 18.5584 4.6875 17.8125 4.6875H7.5C6.75408 4.6875 6.03871 4.98382 5.51126 5.51126C4.98382 6.03871 4.6875 6.75408 4.6875 7.5V17.8125C4.6875 18.5584 4.98382 19.2738 5.51126 19.8012C6.03871 20.3287 6.75408 20.625 7.5 20.625H10.3125M20.625 10.3125H22.5C23.2459 10.3125 23.9613 10.6088 24.4887 11.1363C25.0162 11.6637 25.3125 12.3791 25.3125 13.125V22.5C25.3125 23.2459 25.0162 23.9613 24.4887 24.4887C23.9613 25.0162 23.2459 25.3125 22.5 25.3125H13.125C12.3791 25.3125 11.6637 25.0162 11.1363 24.4887C10.6088 23.9613 10.3125 23.2459 10.3125 22.5V20.625M20.625 10.3125H13.125C12.3791 10.3125 11.6637 10.6088 11.1363 11.1363C10.6088 11.6637 10.3125 12.3791 10.3125 13.125V20.625" stroke="#333333" stroke-width="1.5" stroke-linecap="round" stroke-linejoin="round"/>
</svg>
